<svg xmlns="http://www.w3.org/2000/svg" viewBox="0 0 547.7 210.31"><title>title</title><g id="562459b1-e36b-47f2-a601-063ebdccfb5d" data-name="圖層 2"><g id="bc0b0799-025a-4c99-92d9-6fd54b1912de" data-name="圖層 1"><path d="M71.13,179.8h31.45c5.87,0,10-5.34,11.75-10.43a19.8,19.8,0,0,0,.78-2.61V137.17h-44v-3.91H97.76c5.35,0,8.48-2.87,9.79-7.82a22.11,22.11,0,0,0,.52-2.87c.13-2.61,0-5.35,0-8.08h9.66V97.54h-9.66V93H84.18v4.56H34.59V93H11v4.56H0v16.95H11v18.77H46.72v3H3.39V179.8H47.51v4.82H.65v15.12H47.51v10.56H71.13V199.75H119V184.62H71.13Zm21.8-27.25v11.6H71.13v-11.6Zm-45.42,11.6H27.28v-11.6H47.51ZM34.59,119.31v-4.82h49.6v4.82Zm167.68,29.2H185.69v-7.3H203V126.35h-5.74a1.38,1.38,0,0,1-1.17-1.17c-.13-.65,1.17-6.52,1.44-7.69s4.18-.78,4.7-.78V100.93H183.47V93.76h-20v7.17H144.71V116.7h4.57a1,1,0,0,1,1,.91c.52,1.43,2.35,6.52,2.35,7.82,0,.52-.13.91-.52.91h-9.66V141.6h20.62v6.91h-18.4v14.21h18.4v47.59h22.58V162.72h16.58Zm-25.32-22.94a1.14,1.14,0,0,1-1.17.78H173a1.14,1.14,0,0,1-1.17-.78c-.26-1.3-1.7-7.3-1.7-8.21,0-.52.39-.65.78-.65h7c.52,0,.78.39.78.91C178.77,119,177.34,123.87,176.95,125.57Zm52.21-11.08h13.44c8,0,17.75-1.7,17.75-11.6v-10h-20c-.26,2.22-2.48,4.69-4.83,4.69H207.36v94.13c-3.26-.65-5-3.52-5.48-6.52-.26-1.43-.26-3-.39-4.43q-.78-7-1.17-14.08H187.78c.52,6.52,1.3,13,2.22,19.56.39,2.74.65,5.74,1.31,8.34.91,4.3,4.7,12.52,10.18,12.65a28.45,28.45,0,0,0,3.26.13v2.35h6.79c9.79,0,17.62-3.78,17.62-14.47V140.3h6.66v68.18h18.66V140.3h7V124.13H229.15Zm-80.66,54.23-1.83,15.64c-.39,2.87-1.31,5.74-3.92,7.3v16.43h4.83a13.78,13.78,0,0,0,2.48-.65c4-1.83,6.53-6.26,7.18-10.56.52-3,.65-6.13.91-9.13.78-6.52,1.44-13.17,2-19.82l-10.18-.13C149.41,167.81,148.62,168.07,148.49,168.72Zm139.62-.26-1.57,23.47H285v13.69h5.35a3.91,3.91,0,0,0,1.31-.52c2.74-1.3,5-5.21,5.09-8.34l1-28.29v-.78h-9.66Zm43.33-11.6a10.94,10.94,0,0,0,.52-1.56v-14c-1.31,0-12.92.13-13.05-.39l11.49-10.82c.52-.39.65-.52.65-1.17V113.18H315.91c0-1.43-.26-1.56.78-2.48,1.31-1.17,18.53-16.95,18.66-17.08-.13-.13-.52-.13-.65-.13H310.3a3.47,3.47,0,0,0-1.57.39L288.11,112a1.19,1.19,0,0,0-.52,1v16.17c1.57,0,15.14-.26,15.66.13a.68.68,0,0,1-.26.52L286.55,144.6c-.52.39-.78.52-.78,1.3v17.86h14.1v45.76h20V163.76h4.83A11.82,11.82,0,0,0,331.44,156.85Zm-14-7.43-7.44-.13a3,3,0,0,1,.52-.13c.65-.78,6.13-5.87,6.92-5.48Zm17.75,41.33H333c.39-8-1.31-16-.91-23.86h-11v.78l1.17,27.38c.26,4.17,4.18,10.3,8.88,10.56h4.18l-.13,3.91h57.95C400,207,404.14,202,404,194.66V95.58H335.23Zm44.51-79.13h6.79v30.64h-6.79Zm0,48h6.79v33.5h-6.79Zm-25.84-48h7v30.64h-7Zm0,48h7v33.5h-7ZM494,208.48H516v-63h7.31v35.72h-2.61v16.95h14.62c3.79,0,6.79-3.91,8.09-7,.13-.26.78-2,.78-2V129H494ZM431.38,196v1c-.13,5.22,2,9.65,7,11.6a10.85,10.85,0,0,0,2.74.78h32c6.4,0,12.14-2.61,14.49-8.73a15.91,15.91,0,0,0,.78-3.39v-16H467.54v14.21H452v-19h23.62c6.53,0,14.36-6.39,14.36-13.17V129H431.25ZM452,142h17.1v6.13l-17.1.13Zm0,17.08,17.1-.13v6.39H452Zm88-45.5c-.13-.39-.91-2.48-.91-2.74,0-.78,4.31-.39,5.09-.39V98.06H521c-.13-1.17.39-2.35.39-3.52v-.78H499.12c-.65,0-.91.26-1.17.91L490.38,114a1.5,1.5,0,0,1-1.44.78h-4.31a1.31,1.31,0,0,1-1.31-.78,6.59,6.59,0,0,1-.91-2c.13-.91,4-.52,4.83-.52L487.11,99H463.62c-.13-1.3.39-2.61.39-3.91.13-.39-.39-.39-.65-.39l-21.67-.13a1.44,1.44,0,0,0-1.31.78l-6.66,16.95a1,1,0,0,1-1,.78h-6v12.39h19.58c1.83,0,7.44-3.13,8.09-4.69,1.31-2.87,2.48-5.61,3.65-8.34.26-.65.52-.91,1.17-.91s.91.26,1.17.91l2.61,5.48a11.31,11.31,0,0,0,6.92,6.26,10.42,10.42,0,0,0,2,.39h30.8a13.4,13.4,0,0,0,8.88-4,3.27,3.27,0,0,0,.91-1c.91-2.74,1.7-5.48,2.48-8.21a1.59,1.59,0,0,1,1.31-.78,1.33,1.33,0,0,1,1.31.65c.91,2.35,1.83,4.56,2.74,6.78,1.17,2.74,5.22,6.26,8.35,6.26h18.66v-9.91h-6C540.89,114.22,540.1,114,540,113.57ZM33.73,74.62H50.78v-11h6.4V49.71h-6.4V.1H32.91L.42,48.49V63.6h33.2Zm-.1-48.39V49.71H19ZM180.27,74.52h17.16V14.29h24.77V.1H155.6V14.29h24.67ZM349.58,13.88h1.12l20.41,60.54h29.75V.1H383.8V58.6h-1L362.68.1H332.63V74.42h17ZM321.74.1H304.88V74.42h16.85ZM471.59,72.28a8.51,8.51,0,0,0,3.86-7.55V34.91H444V49h14.32v8.68a2.4,2.4,0,0,1-2,2.55h-27a2.21,2.21,0,0,1-2.13-2V16.95a2.74,2.74,0,0,1,2.74-2.76h24.67a2.79,2.79,0,0,1,2.84,2.55v9.7h17.36V11.13a12.23,12.23,0,0,0-2.94-7.66A9.33,9.33,0,0,0,464.89,0H420.42a10,10,0,0,0-6.9,2.76A10.4,10.4,0,0,0,410,10.62V62.68a12.71,12.71,0,0,0,3.35,8.57,9.82,9.82,0,0,0,7.11,3.16h42.34A16.94,16.94,0,0,0,471.59,72.28ZM547.7,22.87V11c0-3.37-.71-5.92-2.34-7.76-1.83-2-5-3.16-9.44-3.16h-39.4a11.22,11.22,0,0,0-8.33,3.16,9.59,9.59,0,0,0-2.74,6.84V31.85a11.17,11.17,0,0,0,3.35,8.27,10.81,10.81,0,0,0,7.31,2.76H527.9a2.35,2.35,0,0,1,2.34,2.25V57.88a2.19,2.19,0,0,1-1.93,2.35H505.57c-1.83,0-3.45-1.22-3.45-2.45v-8H484.55v13a12.29,12.29,0,0,0,3,8.17,10.82,10.82,0,0,0,8.12,3.57h41.22a10.72,10.72,0,0,0,7.31-3.06,10.14,10.14,0,0,0,3.15-7.15v-25a10.24,10.24,0,0,0-2.54-6.43,10.65,10.65,0,0,0-8.12-4H505.26c-1.22,0-2.74-1.33-2.74-2.14V15.62a2,2,0,0,1,2-1.74H527.8c1.62,0,2.54.51,2.54,2.25v6.74ZM294.06,74.52V.1H276.79V28.48H247V.1H229.89V74.52H247V42.88h29.75V74.52ZM116,2.76A9.41,9.41,0,0,0,110.24.1H77.34A14.63,14.63,0,0,0,70,2.25a9.41,9.41,0,0,0-4.77,8.17v53.7a10.77,10.77,0,0,0,3.25,7.25,9.66,9.66,0,0,0,6.6,3.16h34a10.12,10.12,0,0,0,7.41-3.37,11.12,11.12,0,0,0,2.84-7.66v-25A9.16,9.16,0,0,0,117.24,33c-1.83-2.35-4.57-4.19-7-4.19H82.31V15.92a1.74,1.74,0,0,1,1.52-1.63h17A1.81,1.81,0,0,1,102.62,16v9h16.75V8.68C119.38,6.74,118,4.49,116,2.76ZM101,43a1.5,1.5,0,0,1,1.32,1.63V58.7a1.55,1.55,0,0,1-1.62,1.63H83.84a1.69,1.69,0,0,1-1.52-1.74V43Z" style="fill:#040000"/></g></g></svg>